<svg width="17" height="15" viewBox="0 0 17 15" fill="none" xmlns="http://www.w3.org/2000/svg">
<path d="M15.665 14.165V12.665C15.665 11.2671 14.709 10.0925 13.415 9.75949M10.79 0.883047C11.8895 1.32809 12.665 2.40596 12.665 3.66498C12.665 4.92399 11.8895 6.00187 10.79 6.44691M11.915 14.165C11.915 12.7672 11.915 12.0682 11.6867 11.5169C11.3822 10.7818 10.7982 10.1978 10.0631 9.89334C9.51178 9.66498 8.81286 9.66498 7.41504 9.66498L5.16504 9.66498C3.76721 9.66498 3.0683 9.66498 2.51699 9.89334C1.7819 10.1978 1.19788 10.7818 0.8934 11.5169C0.665039 12.0682 0.665039 12.7672 0.665039 14.165M9.29004 3.66498C9.29004 5.32183 7.94689 6.66498 6.29004 6.66498C4.63318 6.66498 3.29004 5.32183 3.29004 3.66498C3.29004 2.00812 4.63318 0.664978 6.29004 0.664978C7.94689 0.664978 9.29004 2.00812 9.29004 3.66498Z" stroke="#263856" stroke-opacity="0.6" stroke-width="1.33" stroke-linecap="round" stroke-linejoin="round"/>
</svg>
