<svg width="15" height="17" viewBox="0 0 15 17" fill="none" xmlns="http://www.w3.org/2000/svg">
<path d="M7.41504 2.16501L7.41504 10.565C7.41504 11.8251 7.41504 12.4552 7.66027 12.9365C7.87599 13.3599 8.22019 13.7041 8.64356 13.9198C9.12486 14.165 9.75492 14.165 11.015 14.165H11.165M11.165 14.165C11.165 14.9934 11.8366 15.665 12.665 15.665C13.4935 15.665 14.165 14.9934 14.165 14.165C14.165 13.3366 13.4935 12.665 12.665 12.665C11.8366 12.665 11.165 13.3366 11.165 14.165ZM3.66504 2.16501L11.165 2.16501M3.66504 2.16501C3.66504 2.99344 2.99347 3.66501 2.16504 3.66501C1.33661 3.66501 0.665039 2.99344 0.665039 2.16501C0.665039 1.33658 1.33661 0.665009 2.16504 0.665009C2.99347 0.665009 3.66504 1.33658 3.66504 2.16501ZM11.165 2.16501C11.165 2.99343 11.8366 3.66501 12.665 3.66501C13.4935 3.66501 14.165 2.99344 14.165 2.16501C14.165 1.33658 13.4935 0.665009 12.665 0.665009C11.8366 0.665009 11.165 1.33658 11.165 2.16501ZM7.41504 8.16501L11.165 8.16501M11.165 8.16501C11.165 8.99344 11.8366 9.66501 12.665 9.66501C13.4935 9.66501 14.165 8.99344 14.165 8.16501C14.165 7.33658 13.4935 6.66501 12.665 6.66501C11.8366 6.66501 11.165 7.33658 11.165 8.16501Z" stroke="#263856" stroke-opacity="0.6" stroke-width="1.33" stroke-linecap="round" stroke-linejoin="round"/>
</svg>
