<svg width="18" height="18" viewBox="0 0 18 18" fill="none" xmlns="http://www.w3.org/2000/svg">
<g clip-path="url(#clip0_12951_11565)">
<path d="M8.14286 5.25L3.85714 12.75M4.5 14.25L13.4998 14.25M14.1429 12.75L9.85714 5.25M2.7 15.75H3.3C3.72004 15.75 3.93006 15.75 4.09049 15.6683C4.23161 15.5963 4.34635 15.4816 4.41825 15.3405C4.5 15.1801 4.5 14.97 4.5 14.55V13.95C4.5 13.53 4.5 13.3199 4.41825 13.1595C4.34635 13.0184 4.23161 12.9036 4.09049 12.8317C3.93006 12.75 3.72004 12.75 3.3 12.75H2.7C2.27996 12.75 2.06994 12.75 1.90951 12.8317C1.76839 12.9036 1.65365 13.0184 1.58175 13.1595C1.5 13.3199 1.5 13.53 1.5 13.95L1.5 14.55C1.5 14.97 1.5 15.1801 1.58175 15.3405C1.65365 15.4816 1.76839 15.5963 1.90951 15.6683C2.06994 15.75 2.27996 15.75 2.7 15.75ZM14.7 15.75H15.3C15.72 15.75 15.9301 15.75 16.0905 15.6683C16.2316 15.5963 16.3463 15.4816 16.4183 15.3405C16.5 15.1801 16.5 14.97 16.5 14.55V13.95C16.5 13.53 16.5 13.3199 16.4183 13.1595C16.3463 13.0184 16.2316 12.9036 16.0905 12.8317C15.9301 12.75 15.72 12.75 15.3 12.75H14.7C14.28 12.75 14.0699 12.75 13.9095 12.8317C13.7684 12.9036 13.6536 13.0184 13.5817 13.1595C13.5 13.3199 13.5 13.53 13.5 13.95V14.55C13.5 14.97 13.5 15.1801 13.5817 15.3405C13.6536 15.4816 13.7684 15.5963 13.9095 15.6683C14.0699 15.75 14.28 15.75 14.7 15.75ZM8.7 5.25H9.3C9.72004 5.25 9.93006 5.25 10.0905 5.16825C10.2316 5.09635 10.3463 4.98161 10.4183 4.84049C10.5 4.68006 10.5 4.47004 10.5 4.05V3.45C10.5 3.02996 10.5 2.81994 10.4183 2.65951C10.3463 2.51839 10.2316 2.40365 10.0905 2.33175C9.93006 2.25 9.72004 2.25 9.3 2.25H8.7C8.27996 2.25 8.06994 2.25 7.90951 2.33175C7.76838 2.40365 7.65365 2.51839 7.58174 2.65951C7.5 2.81994 7.5 3.02996 7.5 3.45V4.05C7.5 4.47004 7.5 4.68006 7.58174 4.84049C7.65365 4.98161 7.76838 5.09635 7.90951 5.16825C8.06994 5.25 8.27996 5.25 8.7 5.25Z" stroke="#263856" stroke-opacity="0.6" stroke-width="1.33" stroke-linecap="round" stroke-linejoin="round"/>
</g>
<defs>
<clipPath id="clip0_12951_11565">
<rect width="18" height="18" fill="white"/>
</clipPath>
</defs>
</svg>
