<svg preserveAspectRatio="none" width="100%" height="100%" overflow="visible" style="display: block;" viewBox="0 0 35.9158 45.9143" fill="none" xmlns="http://www.w3.org/2000/svg">
<g id="X">
<path id="Rectangle" fill-rule="evenodd" clip-rule="evenodd" d="M2.54181 1.0705C5.23795 -0.803725 8.95402 -0.153214 10.8419 2.52346L22.7533 19.6037C24.6411 22.2803 23.9859 25.9696 21.2897 27.8438C18.5936 29.718 14.8775 29.0675 12.9897 26.3908L1.07829 9.31063C-0.809571 6.63396 -0.154328 2.94473 2.54181 1.0705Z" fill="url(#paint0_linear_0_315)"/>
<path id="Rectangle_2" fill-rule="evenodd" clip-rule="evenodd" d="M14.5418 18.0705C17.238 16.1963 20.954 16.8468 22.8419 19.5235L34.7533 36.6037C36.6411 39.2803 35.9859 42.9696 33.2897 44.8438C30.5936 46.718 26.8775 46.0675 24.9897 43.3908L13.0783 26.3106C11.1904 23.634 11.8457 19.9447 14.5418 18.0705Z" fill="url(#paint1_linear_0_315)"/>
<path id="Rectangle_3" fill-rule="evenodd" clip-rule="evenodd" d="M33.2897 1.0705C35.9859 2.94473 36.6411 6.63396 34.7533 9.31063L22.8419 26.3908C20.954 29.0675 17.238 29.718 14.5418 27.8438C11.8457 25.9696 11.1904 22.2803 13.0783 19.6037L24.9897 2.52346C26.8775 -0.153214 30.5936 -0.803725 33.2897 1.0705Z" fill="url(#paint2_linear_0_315)"/>
<path id="Rectangle_4" fill-rule="evenodd" clip-rule="evenodd" d="M21.2897 18.0705C23.9859 19.9447 24.6411 23.634 22.7533 26.3106L10.8419 43.3908C8.95402 46.0675 5.23795 46.718 2.54181 44.8438C-0.154328 42.9696 -0.809571 39.2803 1.07829 36.6037L12.9897 19.5235C14.8775 16.8468 18.5936 16.1963 21.2897 18.0705Z" fill="url(#paint3_linear_0_315)"/>
<path id="Oval" d="M17.9579 28.8286C21.2483 28.8286 23.9158 26.1807 23.9158 22.9143C23.9158 19.6479 21.2483 17 17.9579 17C14.6674 17 12 19.6479 12 22.9143C12 26.1807 14.6674 28.8286 17.9579 28.8286Z" fill="var(--fill-0, #263856)"/>
<path id="Oval_2" d="M29.9579 11.8286C33.2483 11.8286 35.9158 9.18066 35.9158 5.91429C35.9158 2.64792 33.2483 0 29.9579 0C26.6674 0 24 2.64792 24 5.91429C24 9.18066 26.6674 11.8286 29.9579 11.8286Z" fill="var(--fill-0, #00BDBD)"/>
<path id="Oval_3" d="M5.95789 45.8286C9.24834 45.8286 11.9158 43.1807 11.9158 39.9143C11.9158 36.6479 9.24834 34 5.95789 34C2.66744 34 0 36.6479 0 39.9143C0 43.1807 2.66744 45.8286 5.95789 45.8286Z" fill="var(--fill-0, #FF5395)"/>
</g>
<defs>
<linearGradient id="paint0_linear_0_315" x1="15.0738" y1="21.1221" x2="5.39731" y2="7.64622" gradientUnits="userSpaceOnUse">
<stop stop-color="#832FAF" stop-opacity="0"/>
<stop offset="0.348791" stop-color="#832FAF" stop-opacity="0.478955"/>
<stop offset="0.598791" stop-color="#832FAF" stop-opacity="0.719463"/>
<stop offset="0.830923" stop-color="#842FAF" stop-opacity="0.922296"/>
<stop offset="1" stop-color="#842FAF"/>
</linearGradient>
<linearGradient id="paint1_linear_0_315" x1="21.0475" y1="26.1907" x2="32.0372" y2="41.6271" gradientUnits="userSpaceOnUse">
<stop stop-color="#FFF14C" stop-opacity="0"/>
<stop offset="1" stop-color="#FFCA19"/>
</linearGradient>
<linearGradient id="paint2_linear_0_315" x1="26.315" y1="9.50977" x2="19.174" y2="20.2552" gradientUnits="userSpaceOnUse">
<stop stop-color="#00BDBD" stop-opacity="0"/>
<stop offset="0.555121" stop-color="#00BDBD" stop-opacity="0.647725"/>
<stop offset="1" stop-color="#00BDBD"/>
</linearGradient>
<linearGradient id="paint3_linear_0_315" x1="9.30212" y1="37.6633" x2="18.0648" y2="25.3566" gradientUnits="userSpaceOnUse">
<stop stop-color="#FF5395" stop-opacity="0"/>
<stop offset="0.631865" stop-color="#FF5395" stop-opacity="0.871821"/>
<stop offset="1" stop-color="#FF5395"/>
</linearGradient>
</defs>
</svg>
