<svg preserveAspectRatio="none" width="100%" height="100%" overflow="visible" style="display: block;" viewBox="0 0 159.772 22.4039" fill="none" xmlns="http://www.w3.org/2000/svg">
<path id="Genomelink" fill-rule="evenodd" clip-rule="evenodd" d="M18.0532 13.9614C18.0532 19.0383 14.5765 22.4039 9.3187 22.4039C3.63344 22.4039 0 18.2112 0 11.6226C0 5.11967 3.69044 0.855655 9.3187 0.855655C13.8783 0.855655 17.184 3.3941 17.925 7.47272H15.3174C14.434 4.69184 12.3679 3.22297 9.3187 3.22297C5.24355 3.22297 2.63602 6.50298 2.63602 11.6226C2.63602 16.8136 5.20081 20.0366 9.33295 20.0366C13.0091 20.0366 15.5027 17.6835 15.5027 14.2039V13.7047H9.71767V11.4515H18.0532V13.9614ZM28.3978 8.44246C25.947 8.44246 24.2372 10.2393 24.0519 12.9632H32.5157C32.4587 10.2393 30.8344 8.44246 28.3978 8.44246ZM32.4445 17.9402H34.8953C34.1543 20.5785 31.789 22.19 28.4263 22.19C24.1659 22.19 21.5014 19.1096 21.5014 14.2467C21.5014 9.4122 24.2087 6.2748 28.4263 6.2748C32.5727 6.2748 35.0947 9.22681 35.0947 14.0042V14.9454H24.0519V15.0595C24.1802 18.0971 25.8758 20.0223 28.4833 20.0223C30.4639 20.0223 31.8033 19.295 32.4445 17.9402ZM38.9419 21.919V6.54576H41.2787V8.97011H41.5067C42.2761 7.27307 43.7722 6.2748 46.1233 6.2748C49.5715 6.2748 51.4951 8.31411 51.4951 11.9649V21.919H49.0443V12.5639C49.0443 9.79725 47.8759 8.48524 45.4251 8.48524C42.9743 8.48524 41.3927 10.1252 41.3927 12.8206V21.919H38.9419ZM62.2814 22.19C57.907 22.19 55.1998 19.1667 55.1998 14.2324C55.1998 9.28385 57.907 6.2748 62.2814 6.2748C66.6558 6.2748 69.363 9.28385 69.363 14.2324C69.363 19.1667 66.6558 22.19 62.2814 22.19ZM62.2814 19.9795C65.1882 19.9795 66.8268 17.8689 66.8268 14.2324C66.8268 10.5816 65.1882 8.48524 62.2814 8.48524C59.3747 8.48524 57.736 10.5816 57.736 14.2324C57.736 17.8689 59.3747 19.9795 62.2814 19.9795ZM73.2102 21.919V6.54576H75.547V8.97011H75.775C76.4732 7.2588 78.0121 6.2748 80.0639 6.2748C82.1442 6.2748 83.5976 7.37289 84.31 8.97011H84.538C85.3644 7.34437 87.117 6.2748 89.2401 6.2748C92.3748 6.2748 94.1274 8.07168 94.1274 11.2946V21.919H91.6766V11.8651C91.6766 9.59759 90.608 8.48524 88.4422 8.48524C86.3048 8.48524 84.88 10.0825 84.88 12.0362V21.919H82.4292V11.48C82.4292 9.65464 81.161 8.48524 79.2232 8.48524C77.2141 8.48524 75.661 10.2251 75.661 12.3927V21.919H73.2102ZM104.729 8.44246C102.278 8.44246 100.568 10.2393 100.383 12.9632H108.846C108.789 10.2393 107.165 8.44246 104.729 8.44246ZM108.775 17.9402H111.226C110.485 20.5785 108.12 22.19 104.757 22.19C100.497 22.19 97.8321 19.1096 97.8321 14.2467C97.8321 9.4122 100.539 6.2748 104.757 6.2748C108.903 6.2748 111.425 9.22681 111.425 14.0042V14.9454H100.383V15.0595C100.511 18.0971 102.206 20.0223 104.814 20.0223C106.795 20.0223 108.134 19.295 108.775 17.9402ZM115.415 21.919V0.442088H117.866V21.919H115.415ZM122.682 21.919V6.54576H125.133V21.919H122.682ZM123.907 3.42262C122.967 3.42262 122.198 2.65253 122.198 1.71131C122.198 0.770089 122.967 0 123.907 0C124.848 0 125.617 0.770089 125.617 1.71131C125.617 2.65253 124.848 3.42262 123.907 3.42262ZM129.806 21.919V6.54576H132.143V8.97011H132.371C133.141 7.27307 134.637 6.2748 136.988 6.2748C140.436 6.2748 142.36 8.31411 142.36 11.9649V21.919H139.909V12.5639C139.909 9.79725 138.74 8.48524 136.29 8.48524C133.839 8.48524 132.257 10.1252 132.257 12.8206V21.919H129.806ZM149.655 13.2626L156.323 6.54576H159.33L152.718 13.1343L159.772 21.919H156.651L150.895 14.7173L149.427 16.0863V21.919H146.976V0.442088H149.427V13.2626H149.655Z" fill="var(--fill-0, #263856)"/>
</svg>
