<svg width="17" height="17" viewBox="0 0 17 17" fill="none" xmlns="http://www.w3.org/2000/svg">
<path d="M5.66529 15.665C6.06579 15.2645 6.46629 14.864 6.09579 12.665M15.665 5.66523C15.1648 6.16548 14.6653 6.66498 10.6655 5.66523C6.66504 4.66548 5.91504 5.41548 5.66529 5.66523C5.41554 5.91498 4.66554 6.66498 5.66529 10.6655M5.66529 10.6655C1.66554 9.66498 1.16529 10.1645 0.665039 10.6647M5.66529 10.6655C9.66504 11.666 10.415 10.9145 10.6648 10.6647C10.9145 10.415 11.666 9.66498 10.6655 5.66523M10.6648 0.664978C10.2643 1.06548 9.86379 1.46598 10.2343 3.66498" stroke="#263856" stroke-opacity="0.6" stroke-width="1.33" stroke-linecap="round" stroke-linejoin="round"/>
</svg>
